<svg xmlns="http://www.w3.org/2000/svg" xmlns:xlink="http://www.w3.org/1999/xlink" width="500" zoomAndPan="magnify" viewBox="0 0 375 374.999991" height="500" preserveAspectRatio="xMidYMid meet" version="1.0"><defs><g/></defs><rect x="-37.5" width="450" fill="#ffffff" y="-37.499999" height="449.999989" fill-opacity="1"/><rect x="-37.5" width="450" fill="#ffffff" y="-37.499999" height="449.999989" fill-opacity="1"/><g fill="#ffffff" fill-opacity="1"><g transform="translate(13.265629, 225.374985)"><g><path d="M 21.453125 -1.5 L 21.453125 -67.921875 C 21.453125 -68.921875 20.953125 -69.421875 19.953125 -69.421875 L 18.125 -69.421875 C 17.125 -69.421875 16.625 -68.921875 16.625 -67.921875 L 16.625 -58.96875 C 16.625 -57.96875 16.125 -57.46875 15.125 -57.46875 L 13.375 -57.46875 C 12.375 -57.46875 11.875 -56.96875 11.875 -55.96875 L 11.875 -54.21875 C 11.875 -53.21875 11.375 -52.71875 10.375 -52.71875 L 3.875 -52.71875 C 2.875 -52.71875 2.375 -53.21875 2.375 -54.21875 L 2.375 -72.59375 C 2.375 -73.59375 2.875 -74.09375 3.875 -74.09375 L 60.390625 -74.09375 C 61.398438 -74.09375 61.90625 -73.59375 61.90625 -72.59375 L 61.90625 -54.21875 C 61.90625 -53.21875 61.398438 -52.71875 60.390625 -52.71875 L 53.90625 -52.71875 C 52.90625 -52.71875 52.40625 -53.21875 52.40625 -54.21875 L 52.40625 -55.96875 C 52.40625 -56.96875 51.898438 -57.46875 50.890625 -57.46875 L 49.15625 -57.46875 C 48.15625 -57.46875 47.65625 -57.96875 47.65625 -58.96875 L 47.65625 -67.921875 C 47.65625 -68.921875 47.148438 -69.421875 46.140625 -69.421875 L 44.328125 -69.421875 C 43.328125 -69.421875 42.828125 -68.921875 42.828125 -67.921875 L 42.828125 -1.5 C 42.828125 -0.5 42.320312 0 41.3125 0 L 22.953125 0 C 21.953125 0 21.453125 -0.5 21.453125 -1.5 Z M 21.453125 -1.5 "/></g></g></g><g fill="#ffffff" fill-opacity="1"><g transform="translate(77.543723, 225.374985)"><g><path d="M 5.546875 -1.5 L 5.546875 -74.953125 C 5.546875 -75.960938 6.046875 -76.46875 7.046875 -76.46875 L 25.40625 -76.46875 C 26.40625 -76.46875 26.90625 -75.960938 26.90625 -74.953125 L 26.90625 -51.84375 C 26.90625 -51.050781 27.300781 -50.65625 28.09375 -50.65625 C 28.882812 -50.65625 29.28125 -51.050781 29.28125 -51.84375 L 29.28125 -53.90625 C 29.28125 -54.90625 29.785156 -55.40625 30.796875 -55.40625 L 51.53125 -55.40625 C 52.53125 -55.40625 53.03125 -54.90625 53.03125 -53.90625 L 53.03125 -52.15625 C 53.03125 -51.15625 53.53125 -50.65625 54.53125 -50.65625 L 56.28125 -50.65625 C 56.695312 -50.65625 56.90625 -50.65625 56.90625 -50.65625 C 56.90625 -50.65625 56.695312 -50.65625 56.28125 -50.65625 L 54.53125 -50.65625 C 54.113281 -50.65625 53.90625 -50.65625 53.90625 -50.65625 C 53.90625 -50.65625 54.113281 -50.65625 54.53125 -50.65625 L 56.28125 -50.65625 C 57.28125 -50.65625 57.78125 -50.15625 57.78125 -49.15625 L 57.78125 -1.5 C 57.78125 -0.5 57.28125 0 56.28125 0 L 37.921875 0 C 36.910156 0 36.40625 -0.5 36.40625 -1.5 L 36.40625 -49.15625 C 36.40625 -50.15625 35.90625 -50.65625 34.90625 -50.65625 L 33.171875 -50.65625 C 32.160156 -50.65625 31.65625 -50.15625 31.65625 -49.15625 L 31.65625 -47.421875 C 31.65625 -46.410156 31.15625 -45.90625 30.15625 -45.90625 L 28.421875 -45.90625 C 27.410156 -45.90625 26.90625 -45.40625 26.90625 -44.40625 L 26.90625 -1.5 C 26.90625 -0.5 26.40625 0 25.40625 0 L 7.046875 0 C 6.046875 0 5.546875 -0.5 5.546875 -1.5 Z M 5.546875 -1.5 "/></g></g></g><g fill="#ffffff" fill-opacity="1"><g transform="translate(140.87189, 225.374985)"><g><path d="M 33.328125 -25.25 L 26.828125 -25.25 C 25.828125 -25.25 25.328125 -24.75 25.328125 -23.75 L 25.328125 -6.25 C 25.328125 -5.25 25.828125 -4.75 26.828125 -4.75 L 28.578125 -4.75 C 29.578125 -4.75 30.078125 -5.25 30.078125 -6.25 L 30.078125 -8 C 30.078125 -9 30.578125 -9.5 31.578125 -9.5 L 33.328125 -9.5 C 34.328125 -9.5 34.828125 -10 34.828125 -11 L 34.828125 -23.75 C 34.828125 -24.75 34.328125 -25.25 33.328125 -25.25 Z M 8.703125 -1.5 L 8.703125 -3.25 C 8.703125 -4.25 8.203125 -4.75 7.203125 -4.75 L 5.46875 -4.75 C 4.457031 -4.75 3.953125 -5.25 3.953125 -6.25 L 3.953125 -23.75 C 3.953125 -24.75 4.457031 -25.25 5.46875 -25.25 L 7.203125 -25.25 C 8.203125 -25.25 8.703125 -25.75 8.703125 -26.75 L 8.703125 -28.5 C 8.703125 -29.5 9.207031 -30 10.21875 -30 L 28.578125 -30 C 29.578125 -30 30.078125 -30.5 30.078125 -31.5 L 30.078125 -33.25 C 30.078125 -34.25 30.578125 -34.75 31.578125 -34.75 L 35.703125 -34.75 C 36.703125 -34.75 37.203125 -35.25 37.203125 -36.25 L 37.203125 -49.15625 C 37.203125 -50.15625 36.703125 -50.65625 35.703125 -50.65625 L 31.578125 -50.65625 C 30.578125 -50.65625 30.078125 -50.15625 30.078125 -49.15625 L 30.078125 -42.671875 C 30.078125 -41.660156 29.578125 -41.15625 28.578125 -41.15625 L 26.828125 -41.15625 C 25.828125 -41.15625 25.328125 -40.65625 25.328125 -39.65625 L 25.328125 -35.546875 C 25.328125 -34.535156 24.828125 -34.03125 23.828125 -34.03125 L 7.84375 -34.03125 C 6.832031 -34.03125 6.328125 -34.535156 6.328125 -35.546875 L 6.328125 -49.15625 C 6.328125 -50.15625 6.832031 -50.65625 7.84375 -50.65625 L 10.765625 -50.65625 C 11.765625 -50.65625 12.265625 -51.15625 12.265625 -52.15625 L 12.265625 -53.90625 C 12.265625 -54.90625 12.765625 -55.40625 13.765625 -55.40625 L 49.953125 -55.40625 C 50.953125 -55.40625 51.453125 -54.90625 51.453125 -53.90625 L 51.453125 -52.15625 C 51.453125 -51.15625 51.953125 -50.65625 52.953125 -50.65625 L 54.703125 -50.65625 C 55.703125 -50.65625 56.203125 -50.15625 56.203125 -49.15625 L 56.203125 -1.5 C 56.203125 -0.5 55.703125 0 54.703125 0 L 41.078125 0 C 40.078125 0 39.578125 -0.5 39.578125 -1.5 L 39.578125 -3.25 C 39.578125 -4.25 39.078125 -4.75 38.078125 -4.75 L 36.328125 -4.75 C 35.328125 -4.75 34.828125 -4.25 34.828125 -3.25 L 34.828125 -1.5 C 34.828125 -0.5 34.328125 0 33.328125 0 L 10.21875 0 C 9.207031 0 8.703125 -0.5 8.703125 -1.5 Z M 8.703125 -1.5 "/></g></g></g><g fill="#ffffff" fill-opacity="1"><g transform="translate(202.616858, 225.374985)"><g><path d="M 5.546875 -1.5 L 5.546875 -53.90625 C 5.546875 -54.90625 6.046875 -55.40625 7.046875 -55.40625 L 18.28125 -55.40625 C 19.28125 -55.40625 19.78125 -54.90625 19.78125 -53.90625 L 19.78125 -47.421875 C 19.78125 -46.410156 20.285156 -45.90625 21.296875 -45.90625 L 23.03125 -45.90625 C 24.03125 -45.90625 24.53125 -46.410156 24.53125 -47.421875 L 24.53125 -49.15625 C 24.53125 -50.15625 25.035156 -50.65625 26.046875 -50.65625 L 27.78125 -50.65625 C 28.78125 -50.65625 29.28125 -51.15625 29.28125 -52.15625 L 29.28125 -53.90625 C 29.28125 -54.90625 29.785156 -55.40625 30.796875 -55.40625 L 51.53125 -55.40625 C 52.53125 -55.40625 53.03125 -54.90625 53.03125 -53.90625 L 53.03125 -52.15625 C 53.03125 -51.15625 53.53125 -50.65625 54.53125 -50.65625 L 56.28125 -50.65625 C 56.695312 -50.65625 56.90625 -50.65625 56.90625 -50.65625 C 56.90625 -50.65625 56.695312 -50.65625 56.28125 -50.65625 L 54.53125 -50.65625 C 54.113281 -50.65625 53.90625 -50.65625 53.90625 -50.65625 C 53.90625 -50.65625 54.113281 -50.65625 54.53125 -50.65625 L 56.28125 -50.65625 C 57.28125 -50.65625 57.78125 -50.15625 57.78125 -49.15625 L 57.78125 -1.5 C 57.78125 -0.5 57.28125 0 56.28125 0 L 37.921875 0 C 36.910156 0 36.40625 -0.5 36.40625 -1.5 L 36.40625 -49.15625 C 36.40625 -50.15625 35.90625 -50.65625 34.90625 -50.65625 L 33.171875 -50.65625 C 32.160156 -50.65625 31.65625 -50.15625 31.65625 -49.15625 L 31.65625 -47.421875 C 31.65625 -46.410156 31.15625 -45.90625 30.15625 -45.90625 L 28.421875 -45.90625 C 27.410156 -45.90625 26.90625 -45.40625 26.90625 -44.40625 L 26.90625 -1.5 C 26.90625 -0.5 26.40625 0 25.40625 0 L 7.046875 0 C 6.046875 0 5.546875 -0.5 5.546875 -1.5 Z M 5.546875 -1.5 "/></g></g></g><g fill="#ffffff" fill-opacity="1"><g transform="translate(265.945025, 225.374985)"><g><path d="M 28.421875 -4.75 L 30.15625 -4.75 C 31.15625 -4.75 31.65625 -5.25 31.65625 -6.25 L 31.65625 -8 C 31.65625 -9 32.160156 -9.5 33.171875 -9.5 L 34.90625 -9.5 C 35.90625 -9.5 36.40625 -10 36.40625 -11 L 36.40625 -49 C 36.40625 -50 35.90625 -50.5 34.90625 -50.5 L 33.171875 -50.5 C 32.160156 -50.5 31.65625 -50 31.65625 -49 L 31.65625 -47.25 C 31.65625 -46.25 31.15625 -45.75 30.15625 -45.75 L 28.421875 -45.75 C 27.410156 -45.75 26.90625 -45.25 26.90625 -44.25 L 26.90625 -6.25 C 26.90625 -5.25 27.410156 -4.75 28.421875 -4.75 Z M 10.296875 -1.5 L 10.296875 -3.25 C 10.296875 -4.25 9.789062 -4.75 8.78125 -4.75 L 7.046875 -4.75 C 6.617188 -4.75 6.40625 -4.75 6.40625 -4.75 C 6.40625 -4.75 6.617188 -4.75 7.046875 -4.75 L 8.78125 -4.75 C 9.207031 -4.75 9.421875 -4.75 9.421875 -4.75 C 9.421875 -4.75 9.207031 -4.75 8.78125 -4.75 L 7.046875 -4.75 C 6.046875 -4.75 5.546875 -5.25 5.546875 -6.25 L 5.546875 -44.40625 C 5.546875 -45.40625 6.046875 -45.90625 7.046875 -45.90625 L 8.78125 -45.90625 C 9.789062 -45.90625 10.296875 -46.410156 10.296875 -47.421875 L 10.296875 -49.15625 C 10.296875 -50.15625 10.796875 -50.65625 11.796875 -50.65625 L 13.53125 -50.65625 C 14.539062 -50.65625 15.046875 -51.15625 15.046875 -52.15625 L 15.046875 -53.90625 C 15.046875 -54.90625 15.546875 -55.40625 16.546875 -55.40625 L 51.609375 -55.40625 C 52.609375 -55.40625 53.109375 -54.90625 53.109375 -53.90625 L 53.109375 -52.15625 C 53.109375 -51.15625 53.613281 -50.65625 54.625 -50.65625 L 56.28125 -50.65625 C 57.28125 -50.65625 57.78125 -50.15625 57.78125 -49.15625 L 57.78125 8.78125 C 57.78125 9.789062 57.28125 10.296875 56.28125 10.296875 L 54.53125 10.296875 C 53.53125 10.296875 53.03125 10.796875 53.03125 11.796875 L 53.03125 13.53125 C 53.03125 14.539062 52.53125 15.046875 51.53125 15.046875 L 49.796875 15.046875 C 48.785156 15.046875 48.28125 15.546875 48.28125 16.546875 L 48.28125 18.28125 C 48.28125 19.28125 47.78125 19.78125 46.78125 19.78125 L 11.796875 19.78125 C 10.796875 19.78125 10.296875 19.28125 10.296875 18.28125 L 10.296875 16.546875 C 10.296875 15.546875 9.789062 15.046875 8.78125 15.046875 L 7.046875 15.046875 C 6.617188 15.046875 6.40625 15.046875 6.40625 15.046875 C 6.40625 15.046875 6.617188 15.046875 7.046875 15.046875 L 8.78125 15.046875 C 9.207031 15.046875 9.421875 15.046875 9.421875 15.046875 C 9.421875 15.046875 9.207031 15.046875 8.78125 15.046875 L 7.046875 15.046875 C 6.046875 15.046875 5.546875 14.539062 5.546875 13.53125 L 5.546875 7.046875 C 5.546875 6.046875 6.046875 5.546875 7.046875 5.546875 L 25.40625 5.546875 C 26.40625 5.546875 26.90625 6.046875 26.90625 7.046875 L 26.90625 8.3125 C 26.90625 9.3125 27.410156 9.8125 28.421875 9.8125 L 29.359375 9.8125 C 30.367188 9.8125 30.875 10.3125 30.875 11.3125 L 30.875 13.53125 C 30.875 14.539062 31.375 15.046875 32.375 15.046875 L 37.28125 15.046875 C 38.28125 15.046875 38.78125 14.539062 38.78125 13.53125 L 38.78125 -3.25 C 38.78125 -4.25 38.28125 -4.75 37.28125 -4.75 L 35.546875 -4.75 C 34.535156 -4.75 34.03125 -4.25 34.03125 -3.25 L 34.03125 -1.5 C 34.03125 -0.5 33.53125 0 32.53125 0 L 11.796875 0 C 10.796875 0 10.296875 -0.5 10.296875 -1.5 Z M 10.296875 -1.5 "/></g></g></g><g fill="#ffffff" fill-opacity="1"><g transform="translate(329.273192, 225.374985)"><g><path d="M 8.703125 -1.5 L 8.703125 -1.65625 C 8.703125 -2.664062 8.148438 -3.171875 7.046875 -3.171875 C 6.046875 -3.171875 5.546875 -3.671875 5.546875 -4.671875 L 5.546875 -16.78125 C 5.546875 -17.726562 6.097656 -18.203125 7.203125 -18.203125 C 8.203125 -18.203125 8.703125 -18.785156 8.703125 -19.953125 C 8.703125 -20.898438 9.207031 -21.375 10.21875 -21.375 L 22.25 -21.375 C 23.25 -21.375 23.75 -20.84375 23.75 -19.78125 C 23.75 -18.726562 24.300781 -18.203125 25.40625 -18.203125 C 26.40625 -18.203125 26.90625 -17.726562 26.90625 -16.78125 L 26.90625 -4.671875 C 26.90625 -3.671875 26.351562 -3.171875 25.25 -3.171875 C 24.25 -3.171875 23.75 -2.613281 23.75 -1.5 C 23.75 -0.5 23.25 0 22.25 0 L 10.21875 0 C 9.207031 0 8.703125 -0.5 8.703125 -1.5 Z M 8.703125 -1.5 "/></g></g></g></svg>